<?xml version="1.0" standalone="no"?>
<!DOCTYPE svg PUBLIC "-//W3C//DTD SVG 20010904//EN"
 "http://www.w3.org/TR/2001/REC-SVG-20010904/DTD/svg10.dtd">
<svg version="1.0" xmlns="http://www.w3.org/2000/svg"
 width="235.000000pt" height="89.000000pt" viewBox="0 0 235.000000 89.000000"
 preserveAspectRatio="xMidYMid meet">
<metadata>
Created by potrace 1.15, written by Peter Selinger 2001-2017
</metadata>
<g transform="translate(0.000000,89.000000) scale(0.100000,-0.100000)"
fill="#000000" stroke="none">
<path d="M2215 845 c-5 -2 -54 -11 -107 -20 -83 -15 -98 -20 -98 -36 0 -11 5
-19 10 -19 6 0 10 -11 10 -24 0 -23 3 -24 35 -19 l35 6 0 -146 c0 -80 3 -148
8 -150 4 -3 19 -3 35 0 l27 5 0 154 c0 145 1 154 19 154 41 0 51 11 51 56 0
42 -3 47 -25 39z"/>
<path d="M1917 793 c-13 -3 -15 -11 -10 -31 3 -15 10 -28 15 -30 4 -2 8 -78 8
-168 0 -173 -1 -171 48 -158 22 6 22 8 22 180 0 148 -2 174 -15 174 -8 0 -15
9 -15 20 0 20 -14 23 -53 13z"/>
<path d="M1743 762 l-83 -15 0 -48 c0 -53 10 -60 63 -40 l25 10 7 -150 c7
-143 8 -149 29 -149 44 0 46 8 44 166 l-3 149 33 3 c20 2 32 9 32 18 0 8 -4
14 -10 14 -5 0 -10 14 -10 30 0 35 -3 36 -127 12z"/>
<path d="M1480 704 c-17 -15 -37 -40 -44 -58 -17 -40 -27 -106 -17 -106 5 0
12 -27 15 -61 13 -111 45 -159 106 -159 74 0 119 66 127 191 6 80 -1 134 -17
124 -5 -3 -11 4 -15 15 -3 11 -18 34 -32 50 -33 39 -79 41 -123 4z"/>
<path d="M1313 682 c-7 -4 -13 -37 -15 -77 l-3 -70 -37 -3 -38 -3 0 68 0 69
-35 -4 -35 -4 0 -104 c0 -79 3 -106 14 -110 7 -3 13 -17 14 -32 1 -150 1 -152
21 -152 47 0 51 8 51 95 l0 83 33 5 c17 2 34 3 36 1 2 -2 6 -39 9 -82 l4 -79
32 6 31 7 3 117 c2 100 0 117 -13 117 -12 0 -15 15 -15 80 0 76 -1 80 -22 80
-13 0 -28 -4 -35 -8z"/>
<path d="M981 627 c-37 -19 -63 -60 -68 -109 -9 -77 34 -132 101 -130 52 1 74
-38 40 -72 -22 -23 -33 -20 -46 12 -7 15 -13 29 -14 30 -2 2 -16 1 -33 -3 -24
-5 -31 -12 -31 -30 0 -39 32 -95 57 -101 34 -9 88 4 106 24 43 47 64 166 32
179 -9 3 -29 18 -45 34 -16 16 -39 29 -52 29 -43 0 -68 50 -32 64 19 7 44 -10
44 -30 0 -9 8 -10 31 -4 42 12 43 13 29 54 -19 59 -67 80 -119 53z"/>
<path d="M807 593 c-18 -5 -18 -14 -12 -141 4 -76 11 -138 16 -140 5 -2 4 -13
-2 -24 -10 -18 -12 -18 -28 -4 -10 9 -21 13 -24 9 -4 -3 -7 2 -7 11 0 13 -5
16 -17 11 -10 -4 -26 -10 -35 -12 -10 -3 -18 -14 -18 -24 0 -11 -6 -19 -14
-19 -10 0 -24 43 -48 143 l-34 142 -39 -2 c-21 -2 -40 -4 -42 -7 -11 -11 -70
-362 -61 -367 6 -4 7 -16 3 -28 -5 -16 -2 -21 12 -21 45 0 63 12 63 41 0 31
23 49 65 49 20 0 27 -6 32 -30 5 -29 8 -30 42 -24 20 4 37 7 38 8 1 1 -3 21
-9 45 -9 34 -8 45 3 51 9 6 16 -1 25 -27 17 -49 28 -57 71 -56 50 2 89 44 99
109 5 33 3 49 -5 52 -7 2 -11 45 -11 133 0 127 0 129 -22 128 -13 -1 -31 -3
-41 -6z"/>
<path d="M336 508 c-22 -5 -41 -10 -43 -12 -2 -1 -10 -54 -18 -116 -8 -62 -17
-115 -18 -117 -2 -2 -12 46 -22 107 -18 107 -20 110 -44 110 -14 0 -36 -3 -48
-6 -23 -6 -23 -7 -23 -215 0 -126 4 -209 10 -209 5 0 19 5 32 10 23 11 23 13
20 148 -2 75 -2 135 1 132 3 -3 12 -52 22 -110 21 -131 22 -137 41 -144 23 -9
64 4 64 20 0 8 -4 14 -8 14 -7 0 11 189 22 230 2 8 4 -38 5 -102 1 -98 4 -118
16 -118 8 0 15 -7 15 -15 0 -17 4 -18 38 -9 26 7 32 54 7 54 -13 0 -15 26 -15
174 0 96 -3 177 -7 179 -5 2 -26 0 -47 -5z"/>
</g>
</svg>
